<?xml version="1.0" encoding="UTF-8"?>
<svg width="26px" height="26px" viewBox="0 0 26 26" version="1.1" xmlns="http://www.w3.org/2000/svg" xmlns:xlink="http://www.w3.org/1999/xlink">
    <!-- Generator: Sketch 55.2 (78181) - https://sketchapp.com -->
    <title>SVG_mdpi/help_ic_status_delivery</title>
    <desc>Created with Sketch.</desc>
    <g id="Symbols" stroke="none" stroke-width="1" fill="none" fill-rule="evenodd">
        <g id="help/ic/status/delivery-" fill="#252525">
            <path d="M14.9859283,17.4 C14.8679201,18.1873802 14.0222059,18.8 12.9996915,18.8 C11.9774631,18.8 11.1320349,18.1873802 11.0140669,17.4 L10.3308853,17.4 C9.96992196,17.4 9.6330015,17.2260961 9.43283997,16.9305239 C9.23351931,16.6361935 9.19591017,16.2598253 9.32616267,15.9240847 L9.92621016,14.3768836 C9.91981927,14.3934394 9.92773044,14.351331 9.92773044,14.3699327 C9.92773044,13.1942729 9.92788848,12.9412829 9.92845723,12.9200694 C9.97405341,11.2291878 11.3238626,9.9 13.0003947,9.9 C14.6762513,9.9 16.0259122,11.2290915 16.0698098,12.8961931 C16.0719656,12.9266174 16.0721505,13.0746936 16.0721505,14.3699327 C16.0721505,14.351331 16.0800616,14.3934394 16.0733619,14.3760854 L16.6739401,15.924005 C16.8041248,16.2599033 16.7663482,16.6362132 16.5670409,16.9305239 C16.3668815,17.226093 16.0301391,17.4 15.6691773,17.4 L14.9859283,17.4 Z M13.7314864,17.4 L12.2685095,17.4 C12.3658445,17.6578094 12.6568429,17.8453461 12.9996915,17.8453461 C13.3430411,17.8453461 13.6341336,17.6578094 13.7314864,17.4 Z M10.3308853,16.4 L15.6691773,16.4 C15.7024083,16.4 15.7272879,16.3871512 15.739038,16.3698001 C15.7516691,16.3511483 15.754825,16.3197104 15.741587,16.285554 L15.1407657,14.737006 C15.1029913,14.6391506 15.0721505,14.4749958 15.0721505,14.3699327 C15.0721505,13.7299515 15.0720043,13.3321456 15.071742,13.1221226 C15.0711777,12.934104 15.0711777,12.934104 15.0712374,12.9448398 C15.0406232,11.7949523 14.1318204,10.9 13.0003947,10.9 C11.8682289,10.9 10.9591543,11.7951864 10.9280959,12.9469479 C10.9279386,12.9528158 10.9277304,13.2860607 10.9277304,14.3699327 C10.9277304,14.4749958 10.8968896,14.6391506 10.858832,14.737738 L10.2584811,16.2857231 C10.2451954,16.3199684 10.2483283,16.3513202 10.2608429,16.3698001 C10.2725464,16.3870823 10.297573,16.4 10.3308853,16.4 Z M19.5320911,21.3 L6.46790886,21.3 C5.84881974,21.3 5.35,20.7913209 5.35,20.1698779 L5.35,10.8084241 C5.35,10.407883 5.55282859,9.99866032 5.871477,9.75949255 L12.2957713,4.93209655 C12.7078626,4.6226987 13.292278,4.62260701 13.7042094,4.93203469 L20.1286562,9.75945995 C20.4472743,9.99882453 20.65,10.4079997 20.65,10.8084241 L20.65,20.1698779 C20.65,20.7913209 20.1511803,21.3 19.5320911,21.3 Z M19.5320911,20.3 C19.5944672,20.3 19.65,20.2433696 19.65,20.1698779 L19.65,10.8084241 C19.65,10.7212799 19.5942362,10.6087279 19.5279724,10.5589467 L13.1035501,5.73153975 C13.0475009,5.68943769 12.9525696,5.68945259 12.8963411,5.73166888 L6.47198805,10.559109 C6.40574148,10.6088316 6.35,10.7212945 6.35,10.8084241 L6.35,20.1698779 C6.35,20.2433696 6.40553278,20.3 6.46790886,20.3 L19.5320911,20.3 Z" id="Combined-Shape"></path>
        </g>
    </g>
</svg>