<?xml version="1.0" encoding="UTF-8"?>
<svg width="26px" height="26px" viewBox="0 0 26 26" version="1.1" xmlns="http://www.w3.org/2000/svg" xmlns:xlink="http://www.w3.org/1999/xlink">
    <!-- Generator: Sketch 55.2 (78181) - https://sketchapp.com -->
    <title>SVG_mdpi/help_ic_status_parking</title>
    <desc>Created with Sketch.</desc>
    <g id="Symbols" stroke="none" stroke-width="1" fill="none" fill-rule="evenodd">
        <g id="help/ic/status/parking-" fill="#252525">
            <path d="M6.35,13.877381 L9.02777778,13.877381 L9.02777778,14.877381 L6.35,14.877381 L6.35,15.6 L6.35,15.6574763 C6.35,16.2698588 6.84808106,16.7714286 7.4527263,16.7714286 L18.5472737,16.7714286 C19.1519189,16.7714286 19.65,16.2698588 19.65,15.6574763 L19.65,15.6 L19.65,14.877381 L16.9820342,14.877381 L16.9820342,13.877381 L19.65,13.877381 L19.65,13.0972856 C19.65,12.4849031 19.1519189,11.9833333 18.5472737,11.9833333 L7.4527263,11.9833333 C7.15579667,11.9833333 6.88456609,12.104292 6.68540157,12.2999324 C6.68008484,12.3063511 6.67479883,12.312578 6.66953913,12.3186155 C6.6480074,12.3433314 6.62725969,12.3658539 6.60624011,12.3862169 C6.44655167,12.5795257 6.35,12.8276653 6.35,13.0972856 L6.35,13.877381 Z M5.93139485,11.6407473 C5.95170237,11.6119539 5.98497412,11.5602833 6.02375317,11.4949662 C6.13255792,11.3117023 6.27100967,11.0466282 6.35312872,10.8673454 L7.55020406,8.25482271 C7.80119529,7.70685732 8.47855859,7.3 9.10856983,7.3 L16.7240637,7.3 C17.348495,7.3 18.0313634,7.69636446 18.2937507,8.22184449 L20.1120296,11.6879685 C20.4462948,12.0626075 20.65,12.5570494 20.65,13.0972856 L20.65,15.6287382 L20.65,18.6581096 C20.65,19.0258383 20.3671023,19.35 19.9825362,19.35 L17.6693157,19.35 C17.2847496,19.35 17.0018519,19.0258383 17.0018519,18.6581096 L17.0018519,17.7714286 L8.99814815,17.7714286 L8.99814815,18.6595434 C8.99814815,19.0271782 8.71431678,19.35 8.33069494,19.35 L6.01745321,19.35 C5.63383137,19.35 5.35,19.0271782 5.35,18.6595434 L5.35,15.6287382 L5.35,13.0972856 C5.35,12.5340352 5.5714306,12.020564 5.93139485,11.6407473 Z M7.39965577,10.9839997 C7.41729395,10.9835563 7.434985,10.9833333 7.4527263,10.9833333 L18.5472737,10.9833333 C18.5695072,10.9833333 18.5916618,10.9836835 18.6137323,10.9843788 L17.4036801,8.67755916 C17.3111292,8.49228626 16.9798528,8.3 16.7240637,8.3 L9.10856983,8.3 C8.85861139,8.3 8.54243366,8.48991171 8.45934082,8.67132043 L7.39965577,10.9839997 Z M7.99814815,17.7714286 L7.4527263,17.7714286 C7.04878679,17.7714286 6.67089708,17.6558307 6.35,17.455943 L6.35,18.35 L7.99814815,18.35 L7.99814815,17.7714286 Z M19.65,17.455943 C19.3291029,17.6558307 18.9512132,17.7714286 18.5472737,17.7714286 L18.0018519,17.7714286 L18.0018519,18.35 L19.65,18.35 L19.65,17.455943 Z" id="Combined-Shape"></path>
        </g>
    </g>
</svg>