<?xml version="1.0" encoding="UTF-8"?>
<svg width="26px" height="26px" viewBox="0 0 26 26" version="1.1" xmlns="http://www.w3.org/2000/svg" xmlns:xlink="http://www.w3.org/1999/xlink">
    <!-- Generator: Sketch 55.2 (78181) - https://sketchapp.com -->
    <title>SVG_mdpi/help_ic_status_noti</title>
    <desc>Created with Sketch.</desc>
    <g id="Symbols" stroke="none" stroke-width="1" fill="none" fill-rule="evenodd">
        <g id="help/ic/status/noti-" fill="#252525">
            <path d="M10.1531331,15.6552189 L9.4581648,15.6552189 L9.4581648,20.1268192 L11.1250455,20.1268192 L11.1250455,16.1935207 L10.2417314,15.715186 C10.2473424,15.7182234 10.1230077,15.6559261 10.1923305,15.668425 L10.1520651,15.6610497 L10.1531331,15.6552189 Z M8.4581648,15.6552189 L6.14890033,15.6552189 C5.76333236,15.6552189 5.449567,15.3416697 5.449567,14.9558855 L5.449567,10.3092262 C5.449567,9.92344198 5.76333236,9.60989287 6.14890033,9.60989287 L10.1534674,9.60989287 L17.6850374,5.53128595 C18.1147636,5.29866556 18.5982759,5.58710301 18.5982759,6.075446 L18.5982759,10.1439412 C19.9986483,10.2280888 21.1085802,11.3903712 21.1085802,12.8113977 C21.1085802,14.2328945 19.9987476,15.3953022 18.5982759,15.4794525 L18.5982759,19.2017453 C18.5982759,19.6903777 18.1146843,19.9784828 17.6849692,19.7458685 L12.1250455,16.7350434 L12.1250455,20.4274859 C12.1250455,20.8132616 11.8114878,21.1268192 11.4257121,21.1268192 L9.15749813,21.1268192 C8.77172243,21.1268192 8.4581648,20.8132616 8.4581648,20.4274859 L8.4581648,15.6552189 Z M9.8044422,10.6098929 L6.449567,10.6098929 L6.449567,14.6552189 L9.8044422,14.6552189 L9.8044422,10.6098929 Z M10.8044422,14.8826966 L17.5982759,18.5617119 L17.5982759,6.71548617 L10.8044422,10.3945832 L10.8044422,14.8826966 Z M18.5982759,14.4765084 C19.445892,14.3946466 20.1085802,13.6803405 20.1085802,12.8113977 C20.1085802,11.9429543 19.4458348,11.2287431 18.5982759,11.1468853 L18.5982759,14.4765084 Z" id="Combined-Shape"></path>
        </g>
    </g>
</svg>