<?xml version="1.0" encoding="UTF-8"?>
<svg width="26px" height="26px" viewBox="0 0 26 26" version="1.1" xmlns="http://www.w3.org/2000/svg" xmlns:xlink="http://www.w3.org/1999/xlink">
    <!-- Generator: Sketch 55.2 (78181) - https://sketchapp.com -->
    <title>SVG_mdpi/help_ic_status_energy</title>
    <desc>Created with Sketch.</desc>
    <g id="Symbols" stroke="none" stroke-width="1" fill="none" fill-rule="evenodd">
        <g id="help/ic/status/energy-" fill="#252525">
            <path d="M12.8366286,19.5483934 C9.30368077,19.3150706 6.50188648,16.3535897 6.50190542,12.7514022 L6.5,12.5347824 L6.5,7.3888 L9.7936,7.3888 L9.7936,3 L10.7936,3 L10.7936,7.3888 L16.0792,7.3888 L16.0792,3 L17.0792,3 L17.0792,7.3888 L20.0714157,7.3888 L20.0712,7.88901564 L20.0691048,12.7469587 C20.0691048,16.3185346 17.3212171,19.2577738 13.8366286,19.540868 L13.8366286,23.952 L12.8366286,23.952 L12.8366286,19.5483934 Z M13.156287,16.968 L12.1631907,16.4354109 L13.9414183,13.7627028 L10.5917714,13.7627028 L13.4172263,9.5184 L14.4098599,10.0514045 L12.6309384,12.7241126 L15.9794286,12.7241126 L13.156287,16.968 Z M7.5,12.5325836 L7.50188568,12.7469587 C7.50188568,15.9537823 10.0974866,18.562797 13.2855368,18.5632 C16.4735338,18.562797 19.0691048,15.9537522 19.0691048,12.7467431 L19.0709843,8.3888 L7.5,8.3888 L7.5,12.5325836 Z" id="Combined-Shape"></path>
        </g>
    </g>
</svg>