<?xml version="1.0" encoding="UTF-8"?>
<svg width="40px" height="40px" viewBox="0 0 40 40" version="1.1" xmlns="http://www.w3.org/2000/svg" xmlns:xlink="http://www.w3.org/1999/xlink">
    <title>home/ic/status/noti_dark</title>
    <g id="home/ic/status/noti_dark" stroke="none" stroke-width="1" fill="none" fill-rule="evenodd">
        <g id="Group-13" transform="translate(8.000000, 8.000000)" stroke="#252525" stroke-width="1.25">
            <g id="Group-12" transform="translate(1.000000, 1.000000)">
                <path d="M4.6625,14.0234 L4.6625,21.5004 C4.6625,21.6374 4.7755,21.7504 4.9125,21.7504 L8.3235,21.7504 C8.4615,21.7504 8.5735,21.6374 8.5735,21.5004 L8.5735,15.0164" id="Stroke-2"></path>
                <path d="M6.5458,13.8804 L6.6048,13.8904 C6.6218,13.8944 6.7358,13.9504 6.8568,14.0164 L17.8488,19.9674 C17.9698,20.0334 18.0688,19.9744 18.0688,19.8374 L18.0688,10.4184 L18.0688,9.9184 L18.0688,0.5004 C18.0688,0.3624 17.9698,0.3034 17.8488,0.3694 L6.6368,6.4404" id="Stroke-4"></path>
                <path d="M18.5629,7.2358 C20.3229,7.2358 21.7499,8.6628 21.7499,10.4228 C21.7499,12.1818 20.3229,13.6088 18.5629,13.6088" id="Stroke-6"></path>
                <line x1="6.6366" y1="6.4595" x2="6.6366" y2="13.6435" id="Stroke-8"></line>
                <path d="M6.6871,13.8594 L0.5001,13.8594 C0.3621,13.8594 0.2501,13.7474 0.2501,13.6094 L0.2501,6.7094 C0.2501,6.5724 0.3621,6.4594 0.5001,6.4594 L6.6871,6.4594" id="Stroke-10"></path>
            </g>
        </g>
    </g>
</svg>