<?xml version="1.0" encoding="UTF-8"?>
<svg width="40px" height="40px" viewBox="0 0 40 40" version="1.1" xmlns="http://www.w3.org/2000/svg" xmlns:xlink="http://www.w3.org/1999/xlink">
    <title>home/ic/status/cctv_dark</title>
    <g id="home/ic/status/cctv_dark" stroke="none" stroke-width="1" fill="none" fill-rule="evenodd">
        <g id="home_ic_status_cctv@B" transform="translate(8.000000, 12.000000)" stroke="#252525" stroke-width="1.25">
            <path d="M17.6,15.4 C17.7,15.4 17.9,15.3 17.9,15.1 L17.9,10.9 C17.9,10.8 18,10.7 18.1,10.8 L22.8,14 C22.9,14.1 23.1,14.1 23.3,14.1 L23.8,14.1 C23.9,14.1 24.1,14 24.1,13.8 L24.1,2.1 C24.1,2 24,1.8 23.8,1.8 L23.3,1.8 C23.2,1.8 22.9,1.9 22.8,1.9 L18,5.2 C17.9,5.3 17.8,5.2 17.8,5.1 L17.8,0.9 C17.8,0.8 17.7,0.6 17.5,0.6 L0.3,0.6 C0.2,0.6 0,0.7 0,0.9 L0,15.1 C0,15.2 0.1,15.4 0.3,15.4 L17.6,15.4 Z" id="Path"></path>
        </g>
    </g>
</svg>