<?xml version="1.0" encoding="UTF-8"?>
<svg width="27px" height="27px" viewBox="0 0 27 27" version="1.1" xmlns="http://www.w3.org/2000/svg" xmlns:xlink="http://www.w3.org/1999/xlink">
    <!-- Generator: Sketch 54.1 (76490) - https://sketchapp.com -->
    <title>SVG/iOS/IC/Appbar/More_Black</title>
    <desc>Created with Sketch.</desc>
    <g id="iOS/IC/Appbar/More_Black" stroke="none" stroke-width="1" fill="none" fill-rule="evenodd">
        <path d="M13.5,8.5 C12.396,8.5 11.5,7.60533333 11.5,6.5 C11.5,5.39466667 12.396,4.5 13.5,4.5 C14.604,4.5 15.5,5.39466667 15.5,6.5 C15.5,7.60533333 14.604,8.5 13.5,8.5 Z M13.5,15.471429 C12.396,15.471429 11.5,14.5767623 11.5,13.471429 C11.5,12.3660957 12.396,11.471429 13.5,11.471429 C14.604,11.471429 15.5,12.3660957 15.5,13.471429 C15.5,14.5767623 14.604,15.471429 13.5,15.471429 Z M13.5,22.442858 C12.396,22.442858 11.5,21.5481913 11.5,20.442858 C11.5,19.3375247 12.396,18.442858 13.5,18.442858 C14.604,18.442858 15.5,19.3375247 15.5,20.442858 C15.5,21.5481913 14.604,22.442858 13.5,22.442858 Z" id="more" fill="#FAFAFA"></path>
    </g>
</svg>
