<?xml version="1.0" encoding="utf-8"?>
<!-- Generator: Adobe Illustrator 23.0.4, SVG Export Plug-In . SVG Version: 6.00 Build 0)  -->
<svg version="1.1" id="Layer_1" xmlns="http://www.w3.org/2000/svg" xmlns:xlink="http://www.w3.org/1999/xlink" x="0px" y="0px"
     viewBox="0 0 40 40" style="enable-background:new 0 0 40 40;" xml:space="preserve">
<style type="text/css">
    .st0{fill-rule:evenodd;clip-rule:evenodd;fill:none;}
    .st1{fill:#252525;}
    .st2{fill-rule:evenodd;clip-rule:evenodd;fill:#252525;}
</style>
<title>SVG_mdpi/home_ic_status_visitor</title>
<desc>Created with Sketch.</desc>
<g>
    <rect class="st0" width="40" height="40"/>
    <g id="Symbols">
        <g>
            <g id="Group-9" transform="translate(9.000000, 9.000000)">
                <path class="st1" d="M18,20c-1.1,0-2-0.9-2-2s0.9-2,2-2s2,0.9,2,2S19.1,20,18,20z M18,17c-0.6,0-1,0.4-1,1s0.4,1,1,1s1-0.4,1-1
                    S18.5,17,18,17z"/>
                <path class="st1" d="M19,14H3c-0.6,0-1-0.4-1-1V3c0-0.6,0.4-1,1-1h16c0.6,0,1,0.4,1,1v10C20,13.6,19.6,14,19,14z M18.9,13v0.5
                    V13L18.9,13z M3,3v10h16V3H3z"/>
                <path class="st1" d="M20.5,23h-19C0.1,23-1,21.9-1,20.5v-19C-1,0.1,0.1-1,1.5-1h19C21.9-1,23,0.1,23,1.5v19
                    C23,21.9,21.9,23,20.5,23z M1.5,0C0.7,0,0,0.7,0,1.5v19C0,21.3,0.7,22,1.5,22h19c0.8,0,1.5-0.7,1.5-1.5v-19
                    C22,0.7,21.3,0,20.5,0H1.5z"/>
                <path id="Fill-7" class="st2" d="M6.1,12h1c0.4-1.5,1.6-2.4,3.1-2.7C9.3,9,8.8,8.2,8.8,7.2C8.8,6,9.8,5,11,5
                    c1.2,0,2.2,1,2.2,2.2c0,0.9-0.6,1.7-1.4,2.1c1.5,0.3,2.7,1.2,3.1,2.7h1c-0.3-1.4-1.1-2.3-2.2-3c0.3-0.5,0.5-1.1,0.5-1.8
                    C14.2,5.5,12.8,4,11,4C9.2,4,7.8,5.5,7.8,7.2C7.8,7.9,8,8.5,8.3,9C7.1,9.7,6.3,10.6,6.1,12"/>
            </g>
        </g>
    </g>
</g>
</svg>
