<?xml version="1.0" encoding="UTF-8"?>
<svg width="40px" height="40px" viewBox="0 0 40 40" version="1.1" xmlns="http://www.w3.org/2000/svg" xmlns:xlink="http://www.w3.org/1999/xlink">
    <!-- Generator: Sketch 55.2 (78181) - https://sketchapp.com -->
    <title>PNG_xxhdpi/home_ic_status_cctv</title>
    <desc>Created with Sketch.</desc>
    <g id="Symbols" stroke="none" stroke-width="1" fill="none" fill-rule="evenodd" stroke-linejoin="round">
        <g id="home/ic/status/cctv" stroke="#fafafa">
            <path d="M31.2591508,13.872 C31.1024613,13.872 30.9448782,13.9196923 30.789976,14.0141538 L26.5268907,17.0581538 L26.5268907,13.8827692 C26.5268907,12.8467692 25.7073988,12 24.7047054,12 L9.82248315,12 C8.82008763,12 8,12.8467692 8,13.8827692 L8,26.1181538 C8,27.1532308 8.82008763,28 9.82248315,28 L24.7047054,28 C25.7073988,28 26.5268907,27.1532308 26.5268907,26.1181538 L26.5268907,22.932 L30.7875929,25.9606154 C30.9487507,26.072 31.1164621,26.128 31.282684,26.128 C31.6389589,26.128 32,25.8403077 32,25.2886154 L32,14.7249231 C32,14.1646154 31.6276391,13.872 31.2591508,13.872 Z" id="Stroke-1"></path>
        </g>
    </g>
</svg>